# xmcd
#
# Track frame offsets:
#	150
#	12897
#	23044
#	39535
#	54531
#	68812
#	81234
#	94124
#	107144
#	123700
#	135147
#	147673
#	159172
#	173102
#	183678
#	195775
#	212721
#	227834
#	245300
#
# Disc length: 3436 seconds
#
# Revision: 0
# Processed by: cddbd v1.5.2PL0 Copyright (c) Steve Scherf et al.
# Submitted via: audiograbber 1.83.01
#
DISCID=fd0d6a13
DTITLE=NuTECH - SAV-A4
DYEAR=1900
DGENRE=Karaoke Country
TTITLE0=Tritt, Travis - Here's A Quarter (Call Someone Who Cares)
TTITLE1=Williams, Hank - Honky Tonk Blues
TTITLE2=Gayle, Crystal - You Never Gave Up On Me
TTITLE3=Lewis, Jerry Lee - She Even Woke Me Up To Say Goodbye
TTITLE4=Ashworth, Ernest - Talk Back Trembling Lips
TTITLE5=Orbison, Roy - Only The Lonely
TTITLE6=Williams, Hank - Mind Your Own Business
TTITLE7=Tennessee Ernie Ford - Sixteen Tons
TTITLE8=Judds - Maybe Your Baby's Got The Blues
TTITLE9=Desert Rose Band - Hello Trouble
TTITLE10=Desert Rose Band - Too Gone Too Long
TTITLE11=Nelson, Ricky - Travelin' Man
TTITLE12=Danny O'Keefe - Good Time Charlie's Got The Blues
TTITLE13=Lewis, Jerry Lee - Great Balls Of Fire
TTITLE14=Conlee, John - Back Side Of Thirty
TTITLE15=Parton, Dolly - Old Flames Can't Hold A Candle To You
TTITLE16=Judds - Give A Little Love
TTITLE17=McDowell, Ronnie - Life's Little Ups And Downs
TTITLE18=Loveless, Patty - Chains
EXTD=
EXTT0=
EXTT1=
EXTT2=
EXTT3=
EXTT4=
EXTT5=
EXTT6=
EXTT7=
EXTT8=
EXTT9=
EXTT10=
EXTT11=
EXTT12=
EXTT13=
EXTT14=
EXTT15=
EXTT16=
EXTT17=
EXTT18=
PLAYORDER=
